PathFileType	4	(X/Y/Z)	 s07c0401.trc
DataRate	CameraRate	NumFrames	NumMarkers	Units	OrigDataRate	OrigDataStartFrame	OrigNumFrames
200	200	5	48	mm	200	1751	2000
Frame#	Time	racr			lacr			c7			jug			rlel			rdr			llel			ldr			s2			lic			ric			lasi			rasi			rpsi			lpsi			rgt			lgt			rth1			rth2			rth3			rth4			rlfc			rmfc			rsh1			rsh2			rsh3			rsh4			rlmal			rcal			rtoe			rmt5			lth1			lth2			lth4			lth3			llfc			lmfc			lsh1			lsh2			lsh3			lsh4			llmal			lcal			ltoe			lmt5			SBIKE			LBIKE			RBIKE			
		X1	Y1	Z1	X2	Y2	Z2	X3	Y3	Z3	X4	Y4	Z4	X5	Y5	Z5	X6	Y6	Z6	X7	Y7	Z7	X8	Y8	Z8	X9	Y9	Z9	X10	Y10	Z10	X11	Y11	Z11	X12	Y12	Z12	X13	Y13	Z13	X14	Y14	Z14	X15	Y15	Z15	X16	Y16	Z16	X17	Y17	Z17	X18	Y18	Z18	X19	Y19	Z19	X20	Y20	Z20	X21	Y21	Z21	X22	Y22	Z22	X23	Y23	Z23	X24	Y24	Z24	X25	Y25	Z25	X26	Y26	Z26	X27	Y27	Z27	X28	Y28	Z28	X29	Y29	Z29	X30	Y30	Z30	X31	Y31	Z31	X32	Y32	Z32	X33	Y33	Z33	X34	Y34	Z34	X35	Y35	Z35	X36	Y36	Z36	X37	Y37	Z37	X38	Y38	Z38	X39	Y39	Z39	X40	Y40	Z40	X41	Y41	Z41	X42	Y42	Z42	X43	Y43	Z43	X44	Y44	Z44	X45	Y45	Z45	X46	Y46	Z46	X47	Y47	Z47	X48	Y48	Z48	
1751	8.7550	718.317334	1385.904552	-19.749967	723.608075	1421.612964	-337.512218	715.046493	1453.109515	-175.185196	661.258366	1318.126111	-192.988847	483.882412	1116.111330	49.876168	692.114365	943.562854	-43.908194	528.956784	1167.900061	-491.484710	696.856622	939.174494	-418.710922	118.417788	1294.347945	-215.352476	289.090228	1315.475715	-355.427420	291.282195	1298.321233	-64.670720	300.911493	1230.671494	-334.338682	296.578679	1246.727887	-85.139836	151.945848	1326.268985	-164.240658	167.528134	1334.912803	-271.495417	218.948662	1186.649702	-25.665617	197.308042	1169.690613	-387.526502	327.296310	1080.454021	-31.469316	398.895955	1031.427811	-44.772335	442.206539	959.304031	-51.017191	423.326456	1057.535246	-63.840929	516.423548	836.403199	-92.866674	498.605612	827.368327	-196.822496	437.494503	716.780839	-65.622115	402.871611	636.167024	-83.911702	336.938720	580.089913	-74.013410	413.270544	632.245311	-122.450024	251.702364	468.014672	-70.651323	174.642886	439.859851	-96.389198	457.686898	376.193739	-121.878705	378.907999	356.152533	-49.127497	234.377257	1050.886605	-401.865268	287.500143	980.807361	-406.886807	320.449220	993.019868	-396.255149	298.671667	892.775603	-409.689078	341.016574	721.571875	-387.963598	332.496727	703.191835	-294.293189	228.192377	625.465880	-408.520976	183.076925	554.066378	-390.114709	103.611632	510.922385	-394.088051	190.034059	551.659465	-348.239410	0.333714	425.795125	-391.130400	-73.783277	440.062803	-355.473612	129.045836	233.534202	-356.399479	51.643183	268.770706	-418.519361	-259.528405	978.802221	-229.660543	-76.077745	83.704125	-435.401192	-81.940282	79.569999	-37.931864	
1752	8.7600	717.772035	1386.459149	-20.643676	721.672383	1422.668797	-337.805320	713.364291	1454.075630	-175.626131	659.780501	1318.843463	-193.338906	483.647482	1116.694754	50.877677	692.156716	943.453173	-43.751911	528.495269	1167.818847	-491.523943	696.860518	938.580846	-416.139407	116.894898	1294.337905	-214.771999	287.527007	1316.526364	-354.400512	289.896860	1298.152549	-63.744139	299.620210	1231.875515	-333.394733	295.159878	1246.306746	-84.087078	150.324693	1326.102694	-163.313928	165.844623	1335.298218	-270.577826	216.673310	1185.498063	-25.380574	197.079436	1170.783181	-387.517496	323.394714	1077.661645	-29.662710	394.721591	1027.125283	-44.015245	436.683020	954.534925	-50.166318	419.632841	1053.013575	-62.556554	509.646703	830.601936	-91.634918	492.332163	821.537665	-195.512319	432.571992	709.544039	-64.557012	399.944344	628.113821	-83.023260	335.130746	570.609316	-73.707828	410.627418	624.368668	-121.552531	252.470373	456.507869	-70.561459	175.577977	427.557219	-96.153624	459.331956	366.585025	-121.819317	380.447695	347.896433	-46.445803	236.226166	1052.859703	-401.335206	290.872517	983.832763	-406.161910	323.175153	996.900376	-396.044660	303.521107	895.808713	-409.673677	348.716133	725.247592	-388.415409	340.748980	706.847640	-294.812757	234.217110	630.720571	-408.639198	187.657075	560.262976	-390.232913	107.298176	518.889126	-394.186765	194.650866	557.773741	-348.422351	2.387301	436.439820	-391.551577	-71.408727	451.967278	-355.077542	126.626636	241.271533	-356.535503	49.972433	278.336056	-418.513240	-259.504584	978.808239	-229.640701	-76.088054	83.713506	-435.399976	-81.937553	79.568924	-37.941405	
1753	8.7650	717.148043	1387.020446	-21.587570	719.629373	1423.729620	-338.217647	711.653918	1455.113113	-176.128063	658.280910	1319.675488	-193.928888	483.853621	1116.826657	51.159824	692.097939	943.288195	-43.794863	527.958714	1167.671710	-491.580875	697.064071	939.386969	-418.603864	115.374530	1294.182644	-214.172969	285.853632	1317.639250	-353.445063	288.494655	1297.776005	-62.849532	298.355700	1232.968215	-332.519840	293.814264	1245.899511	-83.097684	148.690932	1325.724614	-162.439530	164.132089	1335.538037	-269.527365	214.606717	1184.183129	-25.209284	196.898196	1171.765378	-387.508960	319.920820	1074.320193	-29.146185	390.363711	1022.477150	-43.182783	430.856177	949.147020	-49.146889	415.740917	1047.991831	-61.188371	502.478080	824.406333	-90.336486	485.721690	815.232468	-194.235226	427.319469	701.892865	-63.379557	396.314093	619.207588	-82.489245	332.849129	561.033221	-73.049425	407.341104	616.409072	-120.574011	252.555887	445.059455	-70.318793	176.243109	415.317367	-96.212465	460.496375	357.086535	-121.710110	382.058808	335.597066	-48.876852	238.077949	1054.750596	-400.874165	294.092161	986.761125	-405.761831	326.102879	1000.510113	-395.329943	308.452071	899.030803	-409.664739	356.449478	729.231865	-389.395840	348.757428	710.575986	-295.234571	240.066171	636.152185	-408.468326	192.416977	566.560247	-390.385032	111.149147	527.000237	-394.249260	198.957775	564.149366	-348.020740	4.686696	446.615744	-391.168826	-68.646632	464.324170	-354.966569	124.766225	249.375654	-356.693970	48.832359	288.138616	-419.000976	-259.492434	978.797884	-229.637227	-76.072288	83.710091	-435.395598	-81.943155	79.564057	-37.924482	
1754	8.7700	716.575798	1387.687709	-22.434915	717.646693	1424.819791	-338.665725	709.958304	1456.156424	-176.699949	656.786545	1320.565666	-194.433966	484.118246	1116.990601	51.444223	692.073749	943.185548	-43.503002	527.400870	1167.525565	-491.644615	697.007601	939.369123	-418.609143	113.844085	1293.832356	-213.473572	284.154737	1318.622706	-352.527956	287.225750	1297.359834	-61.875108	297.098241	1233.945322	-331.695951	292.598149	1245.354606	-82.075655	147.123145	1325.229804	-161.511410	162.413171	1335.582792	-268.483097	212.566566	1182.721853	-24.892983	196.758580	1172.581942	-387.556843	316.341648	1070.671157	-28.719461	385.820100	1017.493538	-42.286996	424.667157	943.425841	-48.048929	411.802941	1042.555998	-59.939234	494.904702	817.736950	-88.898296	478.674504	808.574984	-192.619129	421.605491	693.926105	-62.050025	393.185712	610.882500	-81.060237	330.637452	550.897121	-72.898783	403.673020	607.830644	-119.687621	252.000926	433.620152	-70.209616	176.200797	403.925338	-95.341644	460.881476	347.818156	-122.268019	383.106950	326.289786	-47.332619	239.982881	1056.588091	-400.479930	297.334948	989.774135	-405.316518	329.041788	1004.007593	-394.744193	313.423086	902.278173	-409.549307	364.210745	733.418585	-390.265778	356.722470	714.471262	-295.586758	246.172246	641.700323	-408.727540	197.264130	573.136293	-390.669322	115.172236	535.176573	-394.194449	204.082570	570.371168	-348.358988	7.497956	457.096904	-391.156740	-65.688687	476.472488	-355.118617	123.563821	257.740913	-356.844782	48.331246	297.946570	-419.089800	-259.481848	978.779219	-229.645217	-76.066382	83.701193	-435.381778	-81.948046	79.563771	-37.936456	
1755	8.7750	715.871425	1388.292118	-23.344493	715.628551	1425.925710	-339.201557	708.256780	1457.297307	-177.337822	655.343606	1321.486299	-194.999345	484.286914	1117.187377	51.765206	691.991647	943.134461	-43.201911	526.808102	1167.428198	-491.791854	696.849348	939.279306	-418.558880	112.399550	1293.278884	-212.776029	282.407715	1319.399043	-351.497935	285.873279	1296.721042	-60.959365	295.826636	1234.840630	-330.904180	291.443222	1244.509095	-80.954513	145.604555	1324.578411	-160.557952	160.658588	1335.472293	-267.548853	210.702054	1181.087837	-24.663515	196.509326	1173.357371	-387.473047	312.649182	1066.773119	-27.871609	381.092695	1012.190017	-41.343403	418.254019	937.192594	-46.879790	406.905398	1037.438341	-56.988637	486.954636	810.684522	-87.473396	471.327663	801.514692	-191.064177	415.459068	685.631326	-60.677514	387.950272	602.324628	-80.346362	327.367369	540.840660	-72.155588	399.965400	599.073125	-118.066226	251.114641	422.228751	-69.823145	175.658096	391.008457	-95.996850	461.451482	338.050124	-121.442084	383.431451	315.103676	-47.868270	241.928750	1058.356409	-400.286000	300.533985	992.648843	-404.960895	331.792598	1007.419263	-394.217612	318.401033	905.554640	-409.369793	371.775590	734.835366	-385.847285	364.593528	718.221931	-295.894826	252.352850	647.440463	-408.953631	202.256205	579.635030	-390.886373	119.771563	543.620659	-394.654729	209.300594	576.698499	-348.751371	10.509847	467.600543	-391.202571	-61.818930	488.485676	-354.807712	122.938106	266.281778	-356.989368	48.420625	307.846199	-419.110580	-259.469547	978.773626	-229.623638	-76.062954	83.678703	-435.387970	-81.952726	79.568519	-37.917485	
